# xmcd CD database file
#
# Track frame offsets:
#	180
#	8704
#	15279
#	26010
#	34640
#	41588
#	49296
#	58243
#	69161
#	78304
#	88570
#	97472
#	108166
#	118010
#	128180
#	140888
#	151878
#	160170
#	168855
#	179271
#	191703
#	204090
#	214687
#	226171
#
# Disc length: 3191 seconds
#
# Revision: 0
# Processed by: cddbd v1.5.2PL0 Copyright (c) Steve Scherf et al.
# Submitted via: CDex 1.70beta2
#
DISCID=3a0c7518
DTITLE=Alquimia - Alquimia Mix
DYEAR=2000
DGENRE=Salsa
TTITLE0=Juancito Trucupey
TTITLE1=Compay Lobo
TTITLE2=Perdoname Vida
TTITLE3=Ritmo Cubano
TTITLE4=Caramelos
TTITLE5=Humo
TTITLE6=Me Voy pa' la Habana
TTITLE7=Yerbero Moderno
TTITLE8=Las Muchachas
TTITLE9=Pa la Paloma
TTITLE10=Guaguanco Nro 3
TTITLE11=El Gavilan
TTITLE12=Burundanga
TTITLE13=La Esquina del Movimiento
TTITLE14=Cualquiera resbala y cae
TTITLE15=El Corneta
TTITLE16=Besame Morenita
TTITLE17=Sin Corazon en el Pecho
TTITLE18=Ay que rico Amor
TTITLE19=Guedezaina
TTITLE20=En el Bajio
TTITLE21=Dile que por mi no tema
TTITLE22=Ya te lo dije
TTITLE23=Baila mi Rumba
EXTD=YEAR: 2000
EXTT0=
EXTT1=
EXTT2=
EXTT3=
EXTT4=
EXTT5=
EXTT6=
EXTT7=
EXTT8=
EXTT9=
EXTT10=
EXTT11=
EXTT12=
EXTT13=
EXTT14=
EXTT15=
EXTT16=
EXTT17=
EXTT18=
EXTT19=
EXTT20=
EXTT21=
EXTT22=
EXTT23=
PLAYORDER=
